<svg id="Layer_2" data-name="Layer 2" xmlns="http://www.w3.org/2000/svg" viewBox="0 0 2762.7 507.8"><defs><style>.cls-1{fill:#fff;}</style></defs><title>mkw_logo_white</title><path class="cls-1" d="M564.25,531.92a158.46,158.46,0,0,1-35.65,49,156.92,156.92,0,0,1-39.89,27q-4.89,8.26-10.51,16a203.7,203.7,0,0,1-356.32-50.14h0a89.37,89.37,0,1,1,168-61.14,139.19,139.19,0,0,0,72.09,78.68,139.52,139.52,0,0,0,51.86,12.92q3.58.18,7.15.18A139.29,139.29,0,0,0,533.68,547a139.75,139.75,0,0,0,26.47-74.9,138.76,138.76,0,0,0-8.26-54.76h0a255.37,255.37,0,0,0-22.33-46.28,252.86,252.86,0,0,0-67-72.27,254,254,0,0,0-402,181.91c.61-1.43,1.25-2.86,1.91-4.27A157.85,157.85,0,0,1,138,400.37q4.89-8.26,10.51-16a203.69,203.69,0,0,1,356.32,50.14h0a89.44,89.44,0,0,1-83.93,120c-1.52,0-3,0-4.56-.11a89.31,89.31,0,0,1-79.47-58.72,138.9,138.9,0,0,0-49.06-65.13A139.42,139.42,0,0,0,74.83,591h0a255.37,255.37,0,0,0,22.33,46.28,252.51,252.51,0,0,0,67,72.27,254.35,254.35,0,0,0,136.37,48.2,252.16,252.16,0,0,0,49.87-2.4A254.06,254.06,0,0,0,566.16,527.64C565.55,529.08,564.91,530.5,564.25,531.92Z" transform="translate(-60.56 -250.28)"/><path class="cls-1" d="M763.41,407.69l58.44,165,58.12-165h61.57v227.5h-47V573l4.68-107.34-61.4,169.53H805.6L744.35,465.82,749,573v62.19H702.16V407.69Z" transform="translate(-60.56 -250.28)"/><path class="cls-1" d="M1057.32,638.32q-37.18,0-60.55-22.82t-23.36-60.78v-4.37q0-25.47,9.85-45.55t27.89-30.94q18-10.86,41.17-10.86,34.68,0,54.61,21.88t19.92,62v18.44H1019.19q2.19,16.56,13.21,26.56t27.89,10q26.09,0,40.78-18.91l22.19,24.85a67.85,67.85,0,0,1-27.5,22.42A90.34,90.34,0,0,1,1057.32,638.32Zm-5.16-138.91q-13.44,0-21.8,9.1t-10.7,26.06h62.81V531q-.32-15.08-8.12-23.31T1052.16,499.41Z" transform="translate(-60.56 -250.28)"/><path class="cls-1" d="M1206.54,424.57v41.56h28.9v33.12h-28.9v84.38q0,9.38,3.59,13.44t13.75,4.06a72.8,72.8,0,0,0,13.28-1.09v34.21a92.89,92.89,0,0,1-27.34,4.07q-47.5,0-48.44-48v-91.1h-24.69V466.13h24.69V424.57Z" transform="translate(-60.56 -250.28)"/><path class="cls-1" d="M1358.57,635.19A49.7,49.7,0,0,1,1354,620q-16.41,18.27-42.66,18.28-24.84,0-41.17-14.38t-16.33-36.25q0-26.87,19.92-41.25t57.58-14.53h20.78v-9.69q0-11.72-6-18.75t-19-7q-11.4,0-17.89,5.47t-6.48,15h-45.16a45.39,45.39,0,0,1,9.06-27.19q9.06-12.5,25.63-19.61t37.19-7.11q31.24,0,49.6,15.71t18.36,44.14v73.28q.16,24.06,6.72,36.41v2.65Zm-37.35-31.4a38.87,38.87,0,0,0,18.44-4.46,29.23,29.23,0,0,0,12.5-12V558.32h-16.87q-33.91,0-36.1,23.43l-.15,2.66a18.07,18.07,0,0,0,5.93,13.91Q1310.91,603.78,1321.22,603.79Z" transform="translate(-60.56 -250.28)"/><path class="cls-1" d="M1506.38,543.94,1482,570.19v65h-46.88V407.69H1482V510.82l20.62-28.28,58-74.85h57.66l-80.79,101.1,83.13,126.4h-55.78Z" transform="translate(-60.56 -250.28)"/><path class="cls-1" d="M1730.29,508.47a123.39,123.39,0,0,0-16.25-1.25q-25.63,0-33.6,17.35V635.19h-45.15V466.13h42.65l1.25,20.16Q1692.8,463,1716.85,463a47.09,47.09,0,0,1,14.06,2Z" transform="translate(-60.56 -250.28)"/><path class="cls-1" d="M1845.29,635.19a49.7,49.7,0,0,1-4.53-15.15q-16.41,18.27-42.66,18.28-24.84,0-41.17-14.38t-16.33-36.25q0-26.87,19.92-41.25t57.58-14.53h20.78v-9.69q0-11.72-6-18.75t-19-7q-11.4,0-17.89,5.47t-6.48,15h-45.16a45.39,45.39,0,0,1,9.06-27.19q9.06-12.5,25.63-19.61t37.18-7.11q31.26,0,49.61,15.71t18.36,44.14v73.28q.16,24.06,6.72,36.41v2.65Zm-37.35-31.4a38.87,38.87,0,0,0,18.44-4.46,29.23,29.23,0,0,0,12.5-12V558.32H1822q-33.91,0-36.1,23.43l-.15,2.66a18.07,18.07,0,0,0,5.93,13.91Q1797.63,603.78,1807.94,603.79Z" transform="translate(-60.56 -250.28)"/><path class="cls-1" d="M1931.22,635.19V499.25h-25.15V466.13h25.15V451.75q0-28.42,16.33-44.14t45.71-15.7q9.38,0,23,3.13l-.46,35a57.46,57.46,0,0,0-13.75-1.41q-25.47,0-25.47,23.91v13.59h33.59v33.12h-33.59V635.19Z" transform="translate(-60.56 -250.28)"/><path class="cls-1" d="M2087.63,424.57v41.56h28.91v33.12h-28.91v84.38q0,9.38,3.59,13.44t13.75,4.06a73,73,0,0,0,13.29-1.09v34.21a93,93,0,0,1-27.35,4.07q-47.51,0-48.44-48v-91.1h-24.68V466.13h24.68V424.57Z" transform="translate(-60.56 -250.28)"/><path class="cls-1" d="M2288.72,573.79l22.19-107.66h43.6l-43.13,169.06h-37.81l-32-106.4-32,106.4h-37.66l-43.13-169.06h43.6l22,107.5,30.94-107.5h32.65Z" transform="translate(-60.56 -250.28)"/><path class="cls-1" d="M2454.66,638.32q-37.18,0-60.54-22.82t-23.36-60.78v-4.37q0-25.47,9.84-45.55t27.89-30.94q18-10.86,41.17-10.86,34.7,0,54.61,21.88t19.92,62v18.44H2416.54q2.17,16.56,13.2,26.56t27.89,10q26.1,0,40.78-18.91l22.19,24.85a67.78,67.78,0,0,1-27.5,22.42A90.3,90.3,0,0,1,2454.66,638.32Zm-5.15-138.91q-13.44,0-21.8,9.1T2417,534.57h62.81V531q-.32-15.08-8.13-23.31T2449.51,499.41Z" transform="translate(-60.56 -250.28)"/><path class="cls-1" d="M2644.82,508.47a123.27,123.27,0,0,0-16.25-1.25q-25.64,0-33.6,17.35V635.19h-45.15V466.13h42.65l1.25,20.16Q2607.32,463,2631.38,463a47.09,47.09,0,0,1,14.06,2Z" transform="translate(-60.56 -250.28)"/><path class="cls-1" d="M2727.94,567.38l-16.25,16.25v51.56h-45.15v-240h45.15v133l8.75-11.25,43.28-50.78h54.22l-61.09,70.47,66.41,98.59h-51.88Z" transform="translate(-60.56 -250.28)"/></svg>